<svg height="512" viewBox="0 0 64 64" width="512" xmlns="http://www.w3.org/2000/svg"><path d="m11 25v-22h-8v58h58v-8h-22a28 28 0 0 1 -28-28z" fill="#cff09e"/><path d="m3 3h58v8h-58z" fill="#a8dba8"/><path d="m3 3h16v8h-16z" fill="#79bd9a"/><path d="m7 15h28v20h-28z" fill="#a8dba8"/><path d="m22 25-5 10h10z" fill="#79bd9a"/><path d="m16 23-6 12h12z" fill="#cff09e"/><circle cx="29" cy="21" fill="#cff09e" r="2"/><path d="m44 20.12h6v22h-6z" fill="#cff09e" transform="matrix(.866 .5 -.5 .866 21.86 -19.33)"/><path d="m44.1 42.15-5.2-3-.4 6.7z" fill="#79bd9a"/><path d="m54 16a3 3 0 0 1 3 3v3a0 0 0 0 1 0 0h-6a0 0 0 0 1 0 0v-3a3 3 0 0 1 3-3z" fill="#79bd9a" transform="matrix(.866 .5 -.5 .866 16.73 -24.45)"/><g fill="#3b8686"><path d="m61 2h-58a1 1 0 0 0 -1 1v58a1 1 0 0 0 1 1h58a1 1 0 0 0 1-1v-58a1 1 0 0 0 -1-1zm-1 8h-40v-6h40zm-56-6h14v6h-14zm0 56v-48h56v48z"/><circle cx="7" cy="7" r="1"/><circle cx="11" cy="7" r="1"/><circle cx="15" cy="7" r="1"/><path d="m24 8h9a1 1 0 0 0 0-2h-9a1 1 0 0 0 0 2z"/><path d="m39 8h15a1 1 0 0 0 0-2h-15a1 1 0 0 0 0 2z"/><path d="m35 14h-28a1 1 0 0 0 -1 1v20a1 1 0 0 0 1 1h28a1 1 0 0 0 1-1v-20a1 1 0 0 0 -1-1zm-23.38 20 4.38-8.76 4.38 8.76zm11 0-2-4 1.38-2.76 3.38 6.76zm11.38 0h-6.38l-4.73-9.45a1 1 0 0 0 -1.78 0l-1.61 3.21-2.61-5.21a1 1 0 0 0 -1.78 0l-5.73 11.45h-1.38v-18h26z"/><path d="m29 24a3 3 0 1 0 -3-3 3 3 0 0 0 3 3zm0-4a1 1 0 1 1 -1 1 1 1 0 0 1 1-1z"/><path d="m35 39h-14a1 1 0 0 0 0 2h14a1 1 0 0 0 0-2z"/><path d="m35 44h-28a1 1 0 0 0 0 2h28a1 1 0 0 0 0-2z"/><path d="m35 49h-28a1 1 0 0 0 0 2h28a1 1 0 0 0 0-2z"/><path d="m35 54h-28a1 1 0 0 0 0 2h28a1 1 0 0 0 0-2z"/><path d="m39.05 46.68 5.6-3.68.07-.07.1-.08.09-.12a.18.18 0 0 0 .05-.07l11-19 1.5-2.6a4 4 0 0 0 -6.92-4l-1.54 2.54-11 19s0 0 0 0a.92.92 0 0 0 -.09.28.24.24 0 0 0 0 .08s0 0 0 0l-.4 6.7a1 1 0 0 0 1 1.06 1 1 0 0 0 .54-.04zm.75-5.85 2.4 1.38-2.58 1.7zm12.47-22.83a2 2 0 0 1 3.46 2l-1 1.73-1.73-1-1.73-1zm-2 3.46 1.73 1 1.73 1-10 17.33-1.73-1-1.73-1z"/><path d="m57 49h-18a1 1 0 0 0 0 2h18a1 1 0 0 0 0-2z"/><path d="m57 54h-18a1 1 0 0 0 0 2h18a1 1 0 0 0 0-2z"/></g></svg>